<?xml version="1.0" standalone="no"?>
<!DOCTYPE svg PUBLIC "-//W3C//DTD SVG 20010904//EN"
 "http://www.w3.org/TR/2001/REC-SVG-20010904/DTD/svg10.dtd">
<svg version="1.0" xmlns="http://www.w3.org/2000/svg"
 width="512.000000pt" height="512.000000pt" viewBox="0 0 512.000000 512.000000"
 preserveAspectRatio="xMidYMid meet">

<g transform="translate(0.000000,512.000000) scale(0.100000,-0.100000)"
fill="#000000" stroke="none">
<path d="M1161 4784 c-169 -45 -301 -180 -346 -351 -23 -86 -23 -3660 0 -3746
45 -173 178 -307 350 -352 52 -13 228 -15 1395 -15 1470 0 1390 -3 1511 61 70
38 157 126 193 197 59 116 56 43 56 1554 l0 1388 -428 0 c-463 0 -488 2 -594
56 -71 36 -159 123 -197 193 -59 111 -61 133 -61 603 l0 428 -912 -1 c-764 0
-922 -3 -967 -15z m1034 -799 c256 -67 415 -329 350 -578 -45 -173 -178 -307
-350 -352 -251 -65 -513 94 -580 350 -89 343 237 669 580 580z m1411 -971 c53
-39 69 -71 69 -134 0 -63 -16 -95 -69 -134 -25 -19 -44 -21 -224 -24 -223 -4
-256 2 -301 53 -52 59 -54 147 -4 206 47 55 67 59 295 56 191 -2 209 -4 234
-23z m-1253 -149 c179 -46 320 -193 357 -369 7 -34 10 -135 8 -265 -3 -230 -5
-235 -72 -285 -27 -21 -38 -21 -566 -21 -528 0 -539 0 -566 21 -67 50 -69 55
-72 285 -2 130 1 231 8 265 36 174 177 321 353 369 76 20 472 20 550 0z m1253
-651 c53 -39 69 -71 69 -134 0 -63 -16 -95 -69 -134 -25 -19 -44 -21 -224 -24
-223 -4 -256 2 -301 53 -52 59 -54 147 -4 206 47 55 67 59 295 56 191 -2 209
-4 234 -23z m0 -800 c53 -39 69 -71 69 -134 0 -63 -16 -95 -69 -134 -27 -21
-35 -21 -1024 -24 -681 -2 -1009 0 -1034 8 -101 29 -140 168 -71 251 52 61 -4
59 1095 56 999 -2 1007 -2 1034 -23z"/>
<path d="M3360 4337 c0 -288 3 -375 14 -400 17 -42 68 -85 109 -92 18 -3 191
-4 385 -3 l352 3 -430 430 -430 430 0 -368z"/>
</g>
</svg>
