<?xml version="1.0" encoding="UTF-8"?>
<svg version="1.1" xmlns="http://www.w3.org/2000/svg" width="683" height="683">
<path d="M0 0 C6.03502823 0.00633216 12.07005719 0.00684502 18.10508823 0.00802541 C29.48685234 0.01111007 40.86860663 0.01928406 52.25036645 0.0293749 C65.22779293 0.04062601 78.20521993 0.04606896 91.18265009 0.05107033 C117.835248 0.06146969 144.48783724 0.07901251 171.14042759 0.10139394 C171.14539281 0.9569766 171.14539281 0.9569766 171.15045834 1.82984376 C171.2319766 15.76262928 171.32428167 29.69530823 171.42795467 43.62794709 C171.47789784 50.36589955 171.52434141 57.10384095 171.56230259 63.84187245 C171.59934085 70.35180111 171.64575003 76.8616033 171.6984911 83.37142301 C171.71693692 85.84751394 171.73208054 88.32363188 171.74377155 90.79976392 C171.85032692 112.59948352 172.2291658 129.3680481 186.14042759 147.10139394 C186.92417759 148.15326894 187.70792759 149.20514394 188.51542759 150.28889394 C203.00849104 165.8171762 219.82654234 169.27592872 240.14042759 170.10139394 C248.02391075 170.31730601 255.91081728 170.35615989 263.79667759 170.41780019 C266.03825818 170.43842074 268.27983532 170.45941835 270.52140903 170.48077321 C276.3671852 170.53546796 282.21299331 170.58510489 288.05882359 170.6336205 C294.04568861 170.68422436 300.03250832 170.7397056 306.01933384 170.79475331 C317.72632621 170.90168961 329.43335824 171.0032726 341.14042759 171.10139394 C341.18627403 216.6058037 341.22148176 262.11021099 341.24255825 307.61463932 C341.24505946 312.995234 341.24764812 318.37582863 341.25029087 323.75642323 C341.2510778 325.36309243 341.2510778 325.36309243 341.25188063 327.0022196 C341.26056696 344.3118642 341.27632711 361.62149542 341.29473318 378.9311321 C341.31348166 396.71197779 341.32455475 414.49281651 341.32860458 432.27367169 C341.3313394 443.2322999 341.33995551 454.19089029 341.35626052 465.14950684 C341.36688857 472.67933865 341.37001514 480.2091511 341.36743034 487.73898985 C341.36615805 492.07366268 341.3680127 496.40826973 341.37883854 500.74293065 C341.51810505 559.59607815 341.51810505 559.59607815 322.51542759 580.22639394 C319.02749269 583.5629786 315.22265012 586.26670712 311.20292759 588.91389394 C310.64202427 589.28723866 310.08112095 589.66058339 309.50322056 590.04524159 C301.93128683 594.82900127 293.99619282 596.59022329 285.15298557 597.27371144 C284.16843071 597.35348141 283.18387585 597.43325138 282.16948599 597.51543862 C268.56689514 598.49786363 254.92854711 598.37806202 241.2990185 598.34818423 C237.22477439 598.34150116 233.15054068 598.34657824 229.0762949 598.35006642 C221.12977601 598.35506496 213.18329929 598.34952274 205.23678566 598.34021612 C195.96034166 598.32974861 186.68390638 598.32990448 177.40745758 598.3303887 C160.84814255 598.33088745 144.28884695 598.3217772 127.72953892 598.30720448 C111.69926188 598.29310487 95.66900193 598.28603457 79.63871861 598.28669667 C78.65017718 598.28673663 77.66163576 598.28677658 76.64313854 598.28681775 C75.65622049 598.28685811 74.66930245 598.28689846 73.6524778 598.28694004 C55.33799773 598.28763141 37.02352483 598.28173319 18.7090471 598.27278682 C12.25767701 598.26978307 5.80630826 598.26870879 -0.64506245 598.26825452 C-8.51184864 598.26756946 -16.37862271 598.26306398 -24.24540376 598.25392171 C-28.2515021 598.24933433 -32.25758504 598.24624682 -36.26368618 598.24751592 C-39.94164333 598.24862451 -43.61956661 598.24501152 -47.29751671 598.23786739 C-49.23412051 598.23524263 -51.17072904 598.23739071 -53.10733312 598.23979944 C-59.52784678 598.22237438 -65.93075892 598.06697416 -72.34161377 597.72584939 C-73.61651124 597.65889676 -74.8914087 597.59194413 -76.20493942 597.52296263 C-88.73627661 596.07744965 -100.79745977 588.67366265 -109.85957241 580.10139394 C-109.85957241 579.44139394 -109.85957241 578.78139394 -109.85957241 578.10139394 C-110.84957241 577.77139394 -111.83957241 577.44139394 -112.85957241 577.10139394 C-121.38554264 567.44000394 -127.95680034 553.73595733 -128.26908588 540.82046342 C-128.2881434 540.11701906 -128.30720092 539.4135747 -128.32683595 538.68881384 C-128.38658462 536.36368546 -128.43207474 534.03854151 -128.47648525 531.71307302 C-128.5142043 530.05284813 -128.55220569 528.39262964 -128.5904721 526.73241729 C-128.97268369 509.16800128 -129.00308177 491.60276513 -128.99029708 474.03498757 C-128.98798149 469.29904472 -128.99155258 464.56310512 -128.994277 459.82716298 C-128.99867121 450.60114503 -128.99778642 441.37513531 -128.99486436 432.14911706 C-128.99258265 424.62519718 -128.99230962 417.10127957 -128.99338818 409.57735944 C-128.99354141 408.49614519 -128.99369464 407.41493094 -128.99385252 406.30095262 C-128.99417233 404.10254988 -128.99449655 401.90414713 -128.99482511 399.70574438 C-128.99766194 379.1932517 -128.99442249 358.68076353 -128.98902474 338.16827159 C-128.98456922 320.69862978 -128.98532581 303.22899462 -128.9899435 285.75935292 C-128.99534016 265.33405199 -128.99737615 244.908755 -128.99433124 224.48345345 C-128.9940128 222.28906779 -128.99369842 220.09468212 -128.99338818 217.90029645 C-128.9932339 216.82145767 -128.99307962 215.7426189 -128.99292067 214.63108804 C-128.99206984 207.15495225 -128.99350966 199.67881907 -128.99586773 192.20268369 C-129.01766105 115.50946587 -129.01766105 115.50946587 -128.47627163 82.42536855 C-128.46112963 81.35322075 -128.44598763 80.28107295 -128.43038678 79.17643583 C-128.07114602 55.0104857 -126.53457683 36.21670747 -108.77363491 17.95686269 C-81.14135341 -8.12920812 -34.97200719 -0.04300191 0 0 Z M-5.85957241 130.10139394 C-17.79529316 144.55566127 -22.2264369 160.10321645 -21.11396694 178.61067128 C-19.42819702 195.11568543 -10.13789359 210.6948437 2.58574009 221.10139394 C17.04469251 231.6169957 32.80999394 236.74143246 50.65605259 234.69905019 C69.25204436 231.72291343 84.56604063 221.74811012 95.61699009 206.51936269 C105.36940872 191.04052389 108.07299299 174.01370656 104.31620884 156.19123769 C101.669337 146.06078175 96.00470617 135.94628374 89.14042759 128.10139394 C88.48042759 128.10139394 87.82042759 128.10139394 87.14042759 128.10139394 C86.7981815 127.23321034 86.7981815 127.23321034 86.44902134 126.34748769 C81.95315078 118.63069494 71.18307724 114.15205415 63.14042759 111.10139394 C62.32574009 110.78170644 61.51105259 110.46201894 60.67167759 110.13264394 C36.3458634 102.02403921 11.00616692 112.17071072 -5.85957241 130.10139394 Z M174.14042759 245.10139394 C171.06987079 250.28295854 170.11494323 255.19767089 171.14042759 261.10139394 C173.21737284 266.91342179 175.71505307 271.84616923 181.14042759 275.10139394 C184.719586 276.75968265 187.5263671 277.35610989 191.46220493 277.37605214 C192.50033329 277.38558415 193.53846165 277.39511617 194.60804844 277.40493703 C196.27536518 277.40356992 196.27536518 277.40356992 197.97636509 277.40217519 C199.12907902 277.40646031 200.28179295 277.41074544 201.4694376 277.41516042 C203.90533384 277.42089773 206.34124721 277.4214084 208.77714634 277.41706777 C212.49489331 277.41391137 216.21184166 277.43736327 219.92949009 277.46272206 C222.29928075 277.46499553 224.66907355 277.46569833 227.03886509 277.46467519 C228.70010914 277.47848981 228.70010914 277.47848981 230.39491367 277.49258351 C238.08608395 277.44671489 244.24889544 276.52160351 250.14042759 271.10139394 C250.14042759 270.44139394 250.14042759 269.78139394 250.14042759 269.10139394 C250.80042759 269.10139394 251.46042759 269.10139394 252.14042759 269.10139394 C255.17382313 262.63015011 255.81175939 256.23056141 254.07011509 249.34748769 C252.12791748 244.65520355 248.60319595 240.69842931 244.35136509 237.94123769 C238.26696059 235.63002397 231.56123981 235.94137159 225.14824009 235.93342519 C223.73017567 235.92843259 223.73017567 235.92843259 222.28346348 235.92333913 C220.29161659 235.91829661 218.29976132 235.91592997 216.30790806 235.9160912 C213.28188582 235.91390582 210.25622918 235.89572447 207.23027134 235.87678456 C205.28626216 235.87384975 203.34225126 235.87186554 201.39824009 235.87092519 C200.05718708 235.86014691 200.05718708 235.86014691 198.68904209 235.8491509 C188.53257685 235.88558542 181.00803003 237.18591788 174.14042759 245.10139394 Z M-24.60957241 276.28889394 C-34.49850907 286.91765129 -41.94646451 300.98793842 -42.00483608 315.68269277 C-42.01121593 316.77765569 -42.01759579 317.87261861 -42.02416897 319.00076222 C-42.02528179 320.174791 -42.02639462 321.34881978 -42.02754116 322.55842519 C-42.03086956 323.77535558 -42.03419796 324.99228597 -42.03762722 326.24609303 C-42.0426862 328.81903129 -42.04503586 331.3919761 -42.04487514 333.96491933 C-42.04705844 337.8887769 -42.06521667 341.81235183 -42.08418179 345.73615956 C-42.0871166 348.23941381 -42.08910081 350.74266939 -42.09004116 353.24592519 C-42.09722668 354.41388127 -42.10441219 355.58183736 -42.11181545 356.78518605 C-42.15307752 367.71836923 -42.15307752 367.71836923 -37.60957241 377.41389394 C-32.70157481 382.21034614 -28.29525742 383.48147329 -21.52534389 383.78059316 C-20.79624278 383.81368014 -20.06714167 383.84676713 -19.31594658 383.88085675 C-8.62024539 384.30923037 2.09070282 384.24515648 12.79277134 384.23420644 C15.14673974 384.2348821 17.50070808 384.23585429 19.85467625 384.23710561 C24.76202662 384.23857055 29.66935866 384.23646725 34.57670689 384.23176503 C40.81732458 384.22607169 47.05789921 384.22935201 53.29851532 384.2353375 C58.15199187 384.23897851 63.00545848 384.23778833 67.85893536 384.2352097 C70.15786908 384.23455003 72.45680374 384.23533465 74.75573635 384.23768926 C85.29877385 384.24612094 95.84181879 384.22735266 106.37699986 383.78059316 C107.09868068 383.75862937 107.8203615 383.73666558 108.56391144 383.71403623 C114.42173459 383.40814276 117.52072321 381.5327606 121.82792759 377.72639394 C128.29844107 370.38148674 127.30146792 359.71902861 127.34355259 350.43342519 C127.34925266 349.43614903 127.35495274 348.43887288 127.36082554 347.41137624 C127.37022045 345.31123324 127.37678743 343.21107586 127.38066196 341.11091542 C127.39034737 337.94015494 127.42141599 334.77004917 127.45292759 331.59944081 C127.56784028 309.81695941 123.87451416 293.02275927 109.14042759 276.10139394 C92.00167376 258.87290841 70.17949787 256.98870546 47.16020298 256.91072011 C45.61194418 256.91045331 44.06368462 256.91153407 42.51542759 256.91389394 C41.72183842 256.91483052 40.92824924 256.91576711 40.11061192 256.91673207 C15.31689629 256.98016069 -5.48390049 258.88188839 -24.60957241 276.28889394 Z M177.11699009 347.71467519 C172.5769617 353.42251435 170.62157663 358.4416104 170.83183384 365.80061269 C171.6986501 372.2633314 175.20919131 376.65737763 179.96855259 380.87483144 C186.3041348 384.4528401 193.37968624 384.39830452 200.44902134 384.36701894 C201.89825741 384.36988912 201.89825741 384.36988912 203.37677097 384.37281728 C205.40972754 384.3741716 207.44269297 384.37052803 209.47563267 384.36213613 C212.56526983 384.35143777 215.65432406 384.36205121 218.74394321 384.37483144 C220.72897052 384.37350948 222.71399747 384.37094634 224.69902134 384.36701894 C225.6117934 384.3710674 226.52456547 384.37511586 227.46499729 384.379287 C234.95635571 384.3252772 242.8917933 384.14063407 248.57792759 378.72639394 C249.21601353 378.14115956 249.85409946 377.55592519 250.51152134 376.95295644 C254.09819757 372.87601511 255.05796165 368.46167993 255.14042759 363.10139394 C254.56905597 357.14280422 253.62901186 352.34061242 249.14042759 348.10139394 C243.80471391 344.01446431 239.62443187 342.99206311 233.01811314 342.94026113 C232.02325397 342.93065358 231.02839481 342.92104604 230.0033884 342.91114736 C228.93872852 342.90689748 227.87406864 342.9026476 226.77714634 342.89826894 C225.67119617 342.89256886 224.56524601 342.88686879 223.4257822 342.88099599 C221.08824204 342.87156166 218.75068868 342.86501824 216.41313267 342.86115956 C212.85129002 342.85145757 209.29002547 342.82042001 205.72831821 342.78889394 C203.452931 342.78236292 201.17753968 342.77711284 198.90214634 342.77326894 C197.84355915 342.76092214 196.78497196 342.74857533 195.69430637 342.73585439 C188.81188907 342.75642044 182.70594296 343.25861817 177.11699009 347.71467519 Z M-9.98652554 449.48469472 C-11.16512897 449.51503741 -12.34373241 449.54538011 -13.55805111 449.57664227 C-25.31388167 449.71848274 -25.31388167 449.71848274 -35.73457241 454.28889394 C-40.63814019 460.77891012 -42.67230877 464.75438094 -42.37129116 473.02717519 C-41.51794417 478.15377124 -39.38395302 482.29423524 -35.85957241 486.10139394 C-30.24083638 489.98075714 -26.00775819 490.7386949 -19.25996304 490.84309316 C-18.30784184 490.87166842 -17.35572063 490.90024369 -16.37474728 490.92968488 C-13.20293107 491.01371153 -10.03225453 491.06269351 -6.85957241 491.10139394 C-5.21829876 491.12265214 -5.21829876 491.12265214 -3.54386806 491.1443398 C4.46840909 491.23323112 12.48002426 491.24322883 20.49271965 491.23559308 C23.30415926 491.23369506 26.11559238 491.23543915 28.92703176 491.23715591 C37.26121868 491.24220888 45.59538241 491.23780282 53.92956638 491.23036885 C57.86282225 491.22687568 61.79607763 491.22460737 65.72933459 491.22279012 C107.19124657 491.20363351 148.65255993 491.11064471 190.11311436 490.75351644 C193.38058713 490.72647538 196.64806899 490.70284012 199.91557407 490.68006825 C204.98392323 490.6440186 210.05207958 490.59795941 215.1202631 490.54345632 C216.94367446 490.52512927 218.76711978 490.50986228 220.59058475 490.49801564 C235.80847228 491.18320174 235.80847228 491.18320174 249.07792759 485.28889394 C249.62320103 484.80807363 250.16847446 484.32725331 250.73027134 483.83186269 C255.53214396 477.93926 254.80228359 470.27425837 254.14042759 463.10139394 C252.51551275 457.68193365 248.65894624 454.23669259 244.14042759 451.10139394 C240.09589869 449.99418902 236.10261155 449.90665053 231.92497349 449.78965688 C231.21254773 449.76919325 230.50012197 449.74872962 229.76610756 449.72764587 C227.39294434 449.66193996 225.01968127 449.60390876 222.64628696 449.54719472 C221.81431388 449.52623243 220.98234079 449.50527013 220.1251564 449.48367262 C199.78507619 448.97884293 179.4463527 448.95375616 159.101161 448.96706843 C153.85965144 448.96966476 148.6181433 448.96723516 143.37663364 448.96568227 C134.59639762 448.96388247 125.81617012 448.96620976 117.0359354 448.97102284 C106.97579313 448.97647485 96.9156711 448.97468705 86.85552931 448.96919644 C78.10701881 448.96461836 69.35851431 448.96403705 60.61000299 448.96663511 C55.43295142 448.96817061 50.25590929 448.96846843 45.07885838 448.96509862 C26.72090745 448.95491152 8.36503529 448.94919897 -9.98652554 449.48469472 Z " fill="#FFFFFF" transform="translate(234.8595724105835,41.898606061935425)"/>
<path d="M0 0 C6.2624666 5.17419032 11.9745449 10.83279911 17.70874023 16.5793457 C18.77359234 17.64284066 19.8386566 18.70612323 20.90391541 19.76921082 C23.77764309 22.63840486 26.64822933 25.51072225 29.51809955 28.38377404 C32.52481183 31.39302706 35.53397327 34.39982943 38.54273987 37.4070282 C43.58717702 42.44965034 48.62951108 47.49436824 53.6706543 52.5402832 C59.50548804 58.380576 65.34393942 64.21723373 71.18424839 70.05205089 C76.2010484 75.06432182 81.21590832 80.07852759 86.22913319 85.09437436 C89.22265241 88.08945521 92.21684951 91.08384996 95.21279716 94.07650185 C98.02302209 96.88385044 100.8308131 99.69361031 103.63669777 102.50529671 C104.66947824 103.5394053 105.70312147 104.57265301 106.73766327 105.60499954 C108.14307842 107.00770572 109.54514613 108.41376349 110.94700623 109.82002258 C112.12801234 111.00159423 112.12801234 111.00159423 113.33287716 112.20703602 C115 114 115 114 115 115 C109.27222258 115.81722491 103.72261749 116.15307245 97.94116211 116.16113281 C96.63954384 116.16858017 96.63954384 116.16858017 95.31163025 116.17617798 C92.46685978 116.19067671 89.62214495 116.19757858 86.77734375 116.203125 C85.31205829 116.20736607 85.31205829 116.20736607 83.8171711 116.21169281 C78.65439716 116.22663046 73.49165081 116.23589595 68.32885742 116.24023438 C63.00714386 116.24573149 57.68568452 116.26980113 52.36405087 116.29820633 C48.25903078 116.31684982 44.15407198 116.32203908 40.04901314 116.32357025 C38.08706831 116.32659007 36.12512438 116.33459589 34.16322136 116.34775543 C31.41843184 116.36486249 28.67426496 116.36292508 25.92944336 116.35644531 C25.12561218 116.3656601 24.32178101 116.37487488 23.49359131 116.3843689 C16.84765706 116.33536784 11.46346842 114.64464399 6.25 110.3125 C5.69828125 109.87550781 5.1465625 109.43851562 4.578125 108.98828125 C-0.16412523 103.01351549 -0.42818869 96.28985613 -0.34057617 89.00390625 C-0.34101425 88.03713455 -0.34145233 87.07036285 -0.34190369 86.07429504 C-0.33982662 82.90348568 -0.3165466 79.73321612 -0.29296875 76.5625 C-0.28736895 74.35433236 -0.28310067 72.14616099 -0.28010559 69.93798828 C-0.2686871 64.14456779 -0.23924562 58.35137527 -0.20599365 52.55804443 C-0.17522817 46.63898807 -0.16158642 40.71989464 -0.14648438 34.80078125 C-0.11437312 23.20042103 -0.06321299 11.60022952 0 0 Z " fill="#FFFFFF" transform="translate(448,55)"/>
</svg>
