<?xml version="1.0" encoding="UTF-8"?>
<svg version="1.1" xmlns="http://www.w3.org/2000/svg" width="683" height="683">
<path d="M0 0 C1.72719772 0.00323273 1.72719772 0.00323273 3.48928833 0.00653076 C19.98612043 0.05611685 36.16896367 0.31917469 52.4375 3.3125 C53.57477539 3.51649414 54.71205078 3.72048828 55.88378906 3.93066406 C104.43947275 12.84270112 150.38644107 30.67464727 191.4375 58.3125 C192.06124512 58.73063965 192.68499023 59.1487793 193.32763672 59.57958984 C211.87961623 72.13109245 228.40961214 87.23688971 244.25 103 C245.05099121 103.79623779 245.85198242 104.59247559 246.67724609 105.4128418 C251.46926391 110.21834559 256.04068945 115.14391956 260.4375 120.3125 C261.18132935 121.17234497 261.18132935 121.17234497 261.94018555 122.04956055 C276.46146881 138.93731107 288.64971692 157.85486187 299.4375 177.3125 C299.86836914 178.07997559 300.29923828 178.84745117 300.74316406 179.63818359 C344.15899406 257.4964064 352.52738992 352.00578425 328.4375 437.3125 C311.02904471 497.90256691 274.88575321 556.29934786 226.7265625 597.359375 C224.95464088 598.87125351 223.20336614 600.40734841 221.4609375 601.953125 C212.24956905 610.08112248 202.5301647 617.3182656 192.4375 624.3125 C191.78007813 624.77479004 191.12265625 625.23708008 190.4453125 625.71337891 C176.6094315 635.3808478 161.50206975 642.78784221 146.4375 650.3125 C145.51050293 650.77994629 144.58350586 651.24739258 143.62841797 651.72900391 C111.70999122 667.75969964 76.72713807 676.62936721 41.4375 681.3125 C39.99383057 681.50730957 39.99383057 681.50730957 38.52099609 681.70605469 C-22.38401376 689.48951218 -86.79925993 678.38267416 -142.19580078 652.41796875 C-144.44538837 651.36720203 -146.70317845 650.33695836 -148.96484375 649.3125 C-175.97461229 636.99301688 -201.24447909 620.75169022 -223.0859375 600.578125 C-225.10283553 598.73301324 -227.14947835 596.9483587 -229.22265625 595.16796875 C-234.24096644 590.78807571 -238.9274578 586.09378203 -243.625 581.375 C-244.48416016 580.51970703 -245.34332031 579.66441406 -246.22851562 578.78320312 C-251.21493106 573.78916903 -255.99544654 568.69200121 -260.5625 563.3125 C-261.38234375 562.36246094 -262.2021875 561.41242187 -263.046875 560.43359375 C-302.0401591 514.24672103 -326.08115176 458.33594658 -337.5625 399.3125 C-337.82571045 397.96720215 -337.82571045 397.96720215 -338.09423828 396.59472656 C-341.51175979 378.77555029 -341.77446594 360.9039008 -341.75 342.8125 C-341.74873108 341.84317535 -341.74746216 340.87385071 -341.74615479 339.87515259 C-341.62113963 289.67226896 -331.27364434 241.73812381 -309.5625 196.3125 C-309.10858887 195.36084961 -308.65467773 194.40919922 -308.18701172 193.42871094 C-295.1245447 166.24142784 -279.59261538 141.8913576 -259.5625 119.3125 C-258.33274445 117.89634449 -257.10348098 116.47976131 -255.875 115.0625 C-254.77275852 113.81080205 -253.66849829 112.56087968 -252.5625 111.3125 C-251.86769531 110.52488281 -251.17289062 109.73726563 -250.45703125 108.92578125 C-243.66588427 101.29304635 -236.65979162 93.94378065 -228.88671875 87.30078125 C-227.10277804 85.77468743 -225.33807425 84.22608292 -223.58203125 82.66796875 C-214.37177448 74.54310949 -204.63678137 67.32713418 -194.5625 60.3125 C-193.92731445 59.86664551 -193.29212891 59.42079102 -192.63769531 58.96142578 C-153.71320642 31.76029853 -109.13513842 13.95816532 -62.5625 5.3125 C-61.73878906 5.15797363 -60.91507812 5.00344727 -60.06640625 4.84423828 C-40.05190778 1.14355418 -20.34368015 -0.0684658 0 0 Z M-168.35337567 187.5849154 C-169.86450107 187.61663183 -171.37572779 187.64390202 -172.88702083 187.66624618 C-186.74796668 187.88174946 -197.04655202 189.75540527 -207.5625 199.3125 C-210.57737466 202.78692842 -213.18643468 206.37532272 -215.5625 210.3125 C-215.90148919 210.86487963 -216.24047839 211.41725925 -216.58973998 211.98637766 C-219.71925029 217.56136197 -220.14162108 222.23382728 -220.1040802 228.55067444 C-220.11384799 229.55556378 -220.12361578 230.56045313 -220.13367957 231.59579366 C-220.16125267 234.94953652 -220.16040897 238.30264719 -220.15942383 241.65649414 C-220.17303554 244.06681243 -220.18826952 246.47712201 -220.20500183 248.88742065 C-220.24047042 254.74815671 -220.25678197 260.60875037 -220.26247636 266.46957386 C-220.26712098 271.23853847 -220.27772288 276.00745194 -220.29245567 280.7763958 C-220.3334147 294.32153624 -220.35650276 307.8665517 -220.35833076 321.41175396 C-220.35843366 322.14107779 -220.35853656 322.87040162 -220.35864258 323.62182617 C-220.35874137 324.35204935 -220.35884015 325.08227253 -220.35894194 325.83462369 C-220.36166817 337.65476281 -220.40778814 349.47428624 -220.4734172 361.29422791 C-220.54039484 373.45465491 -220.57340024 385.61477951 -220.57197779 397.77539533 C-220.57189876 404.59311092 -220.58564608 411.41013367 -220.63633156 418.2276783 C-220.68204024 424.64592059 -220.68413776 431.06275693 -220.65364265 437.48107529 C-220.64975278 439.82752925 -220.66103642 442.17406876 -220.68918228 444.52035713 C-220.85071243 458.8937246 -219.71675089 468.91129844 -210.5625 480.3125 C-209.92347653 481.11204133 -209.28445307 481.91158266 -208.62606525 482.73535252 C-201.8742273 490.21087245 -193.32793183 495.57374676 -183.18205166 496.19059467 C-180.3753393 496.25277093 -177.57416339 496.22770993 -174.76719666 496.19465637 C-173.19723883 496.20201911 -171.62729291 496.21243382 -170.05737311 496.225609 C-165.77274404 496.25273877 -161.48923463 496.23659736 -157.20462596 496.21291363 C-152.57261862 496.19494854 -147.9407778 496.21746214 -143.30879211 496.23469543 C-134.24670869 496.26191622 -125.18504406 496.25156155 -116.12296575 496.22778193 C-108.75632387 496.2092133 -101.38979644 496.20474071 -94.02313423 496.21027184 C-92.44838107 496.2114477 -92.44838107 496.2114477 -90.84181472 496.21264732 C-88.70887614 496.21431315 -86.57593759 496.21601694 -84.44299907 496.21775826 C-64.45974883 496.23253382 -44.47672816 496.2052317 -24.49352814 496.16293981 C-7.35782301 496.1275757 9.77760805 496.12598831 26.91333008 496.1496582 C46.82828415 496.17713921 66.74308325 496.18535878 86.65804762 496.16172332 C88.78268172 496.15924191 90.90731585 496.15677844 93.03195 496.15433311 C94.59986132 496.15250215 94.59986132 496.15250215 96.19944762 496.1506342 C103.55526245 496.14331015 110.91099448 496.14951367 118.26680183 496.16083717 C127.23388338 496.17419525 136.20063875 496.16586463 145.16766388 496.13010065 C149.74030581 496.11237845 154.31242881 496.10410367 158.88508224 496.12194061 C163.0755313 496.13800055 167.26495968 496.12609964 171.4552955 496.09240433 C172.96654777 496.08504144 174.47789061 496.08764995 175.98909689 496.10155056 C188.87918649 496.21047307 197.80592927 492.54157014 207.29296875 483.73828125 C212.34990833 478.01813648 218.54751535 469.98319281 218.5773077 462.20840549 C218.58299894 461.34384159 218.58869018 460.47927768 218.59455389 459.58851486 C218.5963237 458.15523918 218.5963237 458.15523918 218.59812927 456.69300842 C218.60321709 455.68225626 218.60830491 454.6715041 218.61354691 453.63012308 C218.62932514 450.22094611 218.6378107 446.81179041 218.64624023 443.40258789 C218.65577458 440.96696842 218.66566555 438.53135032 218.67588806 436.09573364 C218.70461323 428.7683153 218.72436635 421.44089725 218.74128041 414.11344424 C218.74607539 412.04308365 218.75105875 409.97272358 218.75608563 407.90236354 C218.78706568 395.04207465 218.81374828 382.18178125 218.83050442 369.32146549 C218.83445387 366.34150751 218.83845686 363.36154961 218.8425293 360.3815918 C218.84404184 359.27062181 218.84404184 359.27062181 218.84558494 358.13720798 C218.86257364 346.15249031 218.90366038 334.16797979 218.95455229 322.18336315 C219.006392 309.87402227 219.03545537 297.56478771 219.0427013 285.25533861 C219.04735653 278.34613836 219.06203261 271.43727686 219.1024456 264.52818489 C219.14044754 258.02337021 219.14771019 251.51897334 219.13443947 245.01405716 C219.13449337 242.63045504 219.14476874 240.24682715 219.1661911 237.8633213 C219.69480877 221.01028311 219.69480877 221.01028311 212.4375 206.3125 C211.73367188 205.32894531 211.02984375 204.34539062 210.3046875 203.33203125 C203.30712254 195.57982694 195.58653406 188.15753234 184.74942017 187.3125 C182.27419593 187.27200792 179.79801751 187.27449069 177.32275391 187.3125 C175.93467658 187.30486528 174.54661495 187.29372408 173.15859032 187.27942085 C169.37480045 187.250425 165.59268349 187.27065206 161.80895233 187.29944468 C157.71312841 187.32177235 153.61753568 187.297598 149.52172852 187.27926636 C142.42473968 187.25380713 135.32825059 187.25745627 128.23126221 187.28118896 C117.92737354 187.31563814 107.62387917 187.30646389 97.31996799 187.28696704 C80.51923377 187.25630897 63.71870419 187.26109032 46.91796875 187.28613281 C25.54074677 187.31761563 4.16385189 187.29632538 -17.21334684 187.25793099 C-35.78805071 187.22468111 -54.36277471 187.20433589 -72.9375 187.1875 C-74.33921149 187.18619709 -74.33921149 187.18619709 -75.76924038 187.18486786 C-87.51871539 187.17422491 -99.26816109 187.17062457 -111.01763916 187.17767715 C-114.27275054 187.17947761 -117.52784823 187.1791024 -120.78295898 187.17647934 C-136.640885 187.16529488 -152.49877616 187.23590355 -168.35337567 187.5849154 Z " fill="#FFFFFF" transform="translate(341.5625,-0.31250000000000006)"/>
<path d="M0 0 C1.25206781 0.93875767 2.50409407 1.87757075 3.75610352 2.81640625 C4.45333023 3.33920166 5.15055695 3.86199707 5.86891174 4.40063477 C15.96462756 11.97739131 25.91146718 19.68002423 35.61181641 27.75878906 C41.28110977 32.45989935 47.09746585 36.93923635 52.9699707 41.38232422 C58.12802022 45.29747746 63.10716943 49.36777255 68.0546875 53.546875 C71.83542564 56.69581871 75.7012523 59.72627166 79.57885742 62.75439453 C83.91102419 66.1388072 88.21253546 69.55916139 92.5 73 C97.88345306 77.31814425 103.29457432 81.59857684 108.72827148 85.85327148 C113.03057849 89.22652696 117.30019671 92.63889744 121.5625 96.0625 C127.26581308 100.63894288 133.02246067 105.13754761 138.83203125 109.578125 C141.46724477 111.59271487 144.09482781 113.61671171 146.71948242 115.64501953 C154.11198476 121.3528244 161.57204025 126.96987685 169.06420898 132.54614258 C170.42610562 133.56898208 171.77903912 134.60381125 173.12524414 135.6472168 C174.1731311 136.45412964 174.1731311 136.45412964 175.2421875 137.27734375 C175.87108887 137.76710693 176.49999023 138.25687012 177.14794922 138.76147461 C180.40338126 140.93848578 183.13271427 141.71331491 187 141 C196.83820702 136.6532711 205.48298898 128.29961137 213.86083984 121.68212891 C216.78210206 119.38499393 219.73338641 117.12974268 222.6875 114.875 C227.98910364 110.80710287 233.20985271 106.64611311 238.41699219 102.45825195 C242.90144558 98.85858468 247.44250328 95.34581433 252.015625 91.859375 C257.11607526 87.95027079 262.08427179 83.88452687 267.05834961 79.81665039 C272.1821662 75.63684031 277.39755803 71.6028518 282.65625 67.59375 C286.49887241 64.6378866 290.24743114 61.56882678 294 58.5 C299.85818889 53.71124041 305.78811688 49.0419181 311.80078125 44.44921875 C321.00768522 37.41597056 330.0425577 30.17388372 339.02075195 22.85205078 C365.85517459 1 365.85517459 1 368 1 C368.56444768 49.96946618 369.10434372 98.93901258 369.12338257 147.91222382 C369.12497963 150.59083946 369.12851818 153.26944612 369.13256836 155.94805908 C369.15452525 172.35221916 369.11646979 188.75062469 368.6171875 205.1484375 C368.58682404 206.30356842 368.55646057 207.45869934 368.525177 208.64883423 C368.48705902 209.69977264 368.44894104 210.75071106 368.40966797 211.83349609 C368.37904266 212.74134857 368.34841736 213.64920105 368.31686401 214.58456421 C367.97719702 217.17382575 367.449281 218.83013251 366 221 C362.91311754 222.02896082 360.58876776 222.19811519 357.34829998 222.31185722 C356.19443116 222.35316486 355.04056233 222.39447249 353.85172778 222.43703187 C352.60166027 222.47576759 351.35159276 222.51450331 350.06364441 222.55441284 C348.76272014 222.59654022 347.46179587 222.6386676 346.12144965 222.68207157 C332.74202708 223.09567417 319.3665422 223.14114504 305.98168945 223.12939453 C303.3196552 223.13075481 300.65762365 223.13250328 297.99559021 223.13470459 C291.59058998 223.13909131 285.18560165 223.13821708 278.780601 223.13529195 C273.55002909 223.13300535 268.31946044 223.13273925 263.08888817 223.13381577 C261.95911056 223.13404561 261.95911056 223.13404561 260.80650916 223.13428011 C259.27471422 223.13459995 257.74291927 223.13492416 256.21112432 223.1352527 C241.92557938 223.13808783 227.64004091 223.13485373 213.35449704 223.12945233 C201.22078448 223.12500539 189.08708152 223.12574659 176.95336914 223.13037109 C162.74096002 223.13578561 148.52855657 223.1377934 134.31614655 223.13475883 C132.784512 223.13444042 131.25287745 223.13412605 129.7212429 223.13381577 C128.9684105 223.13366149 128.2155781 223.13350721 127.43993259 223.13334826 C122.25481254 223.132502 117.06969627 223.13392715 111.8845768 223.13629532 C84.78209426 223.14744406 57.67948222 223.13487429 30.5801357 222.67265296 C28.39933921 222.63578636 26.21849238 222.60177022 24.03760397 222.57081437 C21.07545741 222.52701603 18.1138589 222.47040486 15.15202332 222.40939331 C14.28976666 222.39825902 13.42751001 222.38712472 12.53912437 222.37565303 C4.20346682 222.17171699 4.20346682 222.17171699 1 220 C-0.48254719 215.26286823 -0.13789468 210.09097026 -0.12025452 205.15420532 C-0.12153615 203.83569519 -0.12153615 203.83569519 -0.12284368 202.49054849 C-0.12448785 199.55178358 -0.11899452 196.61307604 -0.11352539 193.67431641 C-0.11324326 191.56508384 -0.11340175 189.45585117 -0.1139679 187.34661865 C-0.11425487 181.62400736 -0.10837417 175.90141702 -0.10139394 170.1788106 C-0.09514388 164.19703814 -0.09455529 158.21526521 -0.09336853 152.23348999 C-0.0902601 140.90765883 -0.08205326 129.58183732 -0.07201904 118.25601041 C-0.06084278 105.36131741 -0.05534364 92.46662395 -0.05032361 79.57192731 C-0.03987026 53.04794619 -0.02228023 26.52397364 0 0 Z " fill="#FFFFFF" transform="translate(157,239)"/>
<path d="M0 0 C1.1205308 -0.00155999 2.24106159 -0.00311998 3.39554787 -0.00472724 C7.12227345 -0.00869209 10.84895776 -0.00556518 14.57568359 -0.00241089 C17.25893268 -0.00376693 19.94217899 -0.00551207 22.62542725 -0.00772095 C29.14012469 -0.01215297 35.65481057 -0.01121362 42.16950846 -0.00830831 C47.46711223 -0.00604416 52.76471278 -0.00574613 58.06231689 -0.00683212 C59.19599085 -0.00706197 59.19599085 -0.00706197 60.35256732 -0.00729647 C61.8882254 -0.00761621 63.42388348 -0.00794042 64.95954156 -0.00826906 C79.33825002 -0.01111633 93.71695208 -0.00784864 108.09565949 -0.00246869 C120.41647802 0.00199866 132.73728712 0.00122252 145.05810547 -0.00338745 C159.3875691 -0.00874652 173.71702713 -0.0108417 188.04649162 -0.00777519 C189.57630285 -0.00745666 191.10611407 -0.00714229 192.63592529 -0.00683212 C193.38849881 -0.00667785 194.14107232 -0.00652357 194.9164511 -0.00636462 C200.20384393 -0.00550347 205.4912332 -0.00695369 210.77862549 -0.00931168 C217.22767948 -0.01212467 223.6767213 -0.01133985 230.12577391 -0.00603093 C233.41220346 -0.00341412 236.69860873 -0.00289846 239.98503876 -0.00568008 C243.55612658 -0.00842342 247.12715794 -0.00497162 250.69824219 0 C251.72481745 -0.00223072 252.75139271 -0.00446144 253.80907631 -0.00675976 C267.7438423 0.03071913 267.7438423 0.03071913 273.34912109 1.12698364 C273.67912109 1.78698364 274.00912109 2.44698364 274.34912109 3.12698364 C271.27823742 5.64484801 268.20471912 8.15946719 265.12939453 10.67190552 C263.90821319 11.67001863 262.68753596 12.66874874 261.46728516 13.66799927 C253.58408486 20.12111375 245.65452738 26.4888252 237.55615234 32.66995239 C234.15057986 35.27100944 230.77872545 37.91390357 227.41162109 40.56448364 C226.83009277 41.02226196 226.24856445 41.48004028 225.64941406 41.95169067 C224.47121969 42.87957985 223.2931601 43.80764018 222.11523438 44.73587036 C219.19541068 47.03572596 216.27213022 49.33117891 213.34912109 51.62698364 C209.89483073 54.34034959 206.44096059 57.0542372 202.98974609 59.77151489 C195.00985592 66.05215515 187.00239158 72.29667769 178.98193359 78.52542114 C175.95154384 80.87928242 172.92563201 83.23869891 169.90380859 85.60354614 C155.26083246 97.05210221 140.44939884 108.28664664 125.34912109 119.12698364 C122.45055855 117.77579519 120.02568384 116.22999723 117.51318359 114.25588989 C116.78583008 113.68717163 116.05847656 113.11845337 115.30908203 112.53250122 C114.53854492 111.92430542 113.76800781 111.31610962 112.97412109 110.68948364 C112.17264648 110.06130737 111.37117187 109.4331311 110.54541016 108.78591919 C108.14413179 106.90278375 105.74643566 105.01516103 103.34912109 103.12698364 C102.08116339 102.13184599 100.81295841 101.13702327 99.54443359 100.14260864 C96.70541687 97.9160299 93.86946488 95.68559154 91.03466797 93.4536438 C88.72694557 91.63728176 86.41759777 89.82299255 84.1081543 88.00881958 C82.9373058 87.0890413 81.76656975 86.16911987 80.59594727 85.24905396 C77.69366469 82.96802417 74.79020814 80.68852066 71.88427734 78.41213989 C65.21144048 73.18207857 58.57157873 67.91348064 51.95703125 62.6098938 C47.75027434 59.23991215 43.52683583 55.89226215 39.28662109 52.56448364 C38.71153809 52.11315063 38.13645508 51.66181763 37.54394531 51.19680786 C34.67278796 48.94522029 31.79895889 46.69708793 28.92333984 44.45120239 C21.99406508 39.03226764 15.13655237 33.53417319 8.3215332 27.97219849 C3.92912147 24.39335399 -0.49965929 20.86638569 -4.96337891 17.37698364 C-7.19397933 15.62880362 -9.42323824 13.87893367 -11.65087891 12.12698364 C-12.20275879 11.69305298 -12.75463867 11.25912231 -13.32324219 10.81204224 C-14.89627883 9.56977778 -16.46128153 8.31736047 -18.02587891 7.06448364 C-18.92048828 6.35163208 -19.81509766 5.63878052 -20.73681641 4.90432739 C-21.36845703 4.31780396 -22.00009766 3.73128052 -22.65087891 3.12698364 C-22.65087891 2.46698364 -22.65087891 1.80698364 -22.65087891 1.12698364 C-15.07853729 0.31429952 -7.61297177 -0.01654279 0 0 Z " fill="#FFFFFF" transform="translate(215.65087890625,220.87301635742188)"/>
</svg>
