<?xml version="1.0" encoding="UTF-8"?>
<svg version="1.1" xmlns="http://www.w3.org/2000/svg" width="683" height="683">
<path d="M0 0 C0.70753418 0.34272949 1.41506836 0.68545898 2.14404297 1.03857422 C6.16195443 2.98826459 10.15147789 4.98658564 14.12060547 7.03369141 C15.97201681 7.98561218 17.83128218 8.92071567 19.69140625 9.85546875 C54.7432793 27.73224929 87.47497784 55.21416449 113 85 C113.79664063 85.91523438 114.59328125 86.83046875 115.4140625 87.7734375 C153.26502942 132.31185441 178.96886327 186.66233327 190 244 C190.16822266 244.87333984 190.33644531 245.74667969 190.50976562 246.64648438 C193.07933859 260.31915038 194.15500125 273.75034528 194.16796875 287.6640625 C194.17129715 288.9361557 194.17462555 290.2082489 194.17805481 291.51889038 C194.18308866 294.19638603 194.18590045 296.87377996 194.18530273 299.55126953 C194.18522169 302.25641598 194.19213844 304.96139232 194.20581055 307.66650391 C194.27987363 322.56636935 194.27352194 337.2506838 192 352 C191.82831299 353.11713379 191.65662598 354.23426758 191.47973633 355.38525391 C190.9729622 358.43536666 190.41072954 361.46658072 189.8125 364.5 C189.59819336 365.59111084 189.38388672 366.68222168 189.16308594 367.80639648 C175.49017703 435.30550584 141.45448913 497.83602103 91 545 C90.34 545 89.68 545 89 545 C89 545.66 89 546.32 89 547 C87.70703125 548.33984375 87.70703125 548.33984375 85.8125 549.9375 C85.07257812 550.56398438 84.33265625 551.19046875 83.5703125 551.8359375 C82.72210937 552.55007813 81.87390625 553.26421875 81 554 C80.08992187 554.79664063 79.17984375 555.59328125 78.2421875 556.4140625 C58.26172792 573.82326622 36.36578438 587.63977454 13 600 C11.94474121 600.56267578 11.94474121 600.56267578 10.86816406 601.13671875 C1.99607926 605.84086122 -7.14119113 609.87112975 -16.375 613.8125 C-17.4690918 614.28115479 -18.56318359 614.74980957 -19.69042969 615.23266602 C-43.2574812 625.14553464 -43.2574812 625.14553464 -54.3125 621.16796875 C-57.31270041 619.49910727 -60.42391704 617.65081382 -61.59165955 614.30455017 C-63.74088597 602.17496549 -63.21471172 589.26937901 -63.41499138 576.98798943 C-63.46613325 573.88664592 -63.52269467 570.78544165 -63.58070374 567.68421936 C-63.74481623 558.87904864 -63.90225147 550.07377894 -64.04956055 541.26831055 C-64.14060754 535.84859356 -64.24014619 530.42908507 -64.34482002 525.00961494 C-64.38267048 522.96503878 -64.41738762 520.9204018 -64.4487133 518.87571526 C-64.8494413 492.84458688 -68.02274684 472.16960111 -86 452 C-86 451.67 -86 451.34 -86 451 C-85.21689453 450.87995605 -84.43378906 450.75991211 -83.62695312 450.63623047 C-38.1340892 443.57859557 10.28752682 432.00151142 39.46704102 393.12866211 C66.05678195 356.13589587 73.06833582 305.86999641 66.40795898 261.55859375 C63.04556286 241.55243027 55.29326852 222.4644934 42.3046875 206.68359375 C41.8411084 206.11278076 41.3775293 205.54196777 40.89990234 204.95385742 C39.98946913 203.84574556 39.06077822 202.75230286 38.11181641 201.67700195 C35.71018048 198.76720317 34.98794364 197.33569424 35.125 193.51953125 C35.41375 192.35808594 35.7025 191.19664062 36 190 C36.35578125 188.38931641 36.35578125 188.38931641 36.71875 186.74609375 C36.9765625 185.65425781 37.234375 184.56242188 37.5 183.4375 C39.05438708 176.28731943 39.72792435 169.30353086 40 162 C40.04125 161.02675781 40.0825 160.05351562 40.125 159.05078125 C40.48172566 142.70828702 38.46544697 123.30368626 30 109 C28.37454838 107.37454838 26.62327727 107.78979252 24.375 107.75 C-3.68956211 108.14679972 -36.40293489 124.17411578 -58.390625 140.80859375 C-63.99988355 143.36970731 -71.07205668 140.59321458 -76.86499023 139.28613281 C-96.57125569 134.86597487 -116.8062138 132.54861996 -137 132 C-138.19326904 131.96712891 -138.19326904 131.96712891 -139.41064453 131.93359375 C-168.26898421 131.27359742 -197.93447656 133.94771732 -226 141 C-233.86278288 141.96560491 -238.36613068 138.96770067 -245 135 C-281.88976204 112.75672755 -281.88976204 112.75672755 -323 108 C-327.23568856 111.07264235 -328.31827771 115.14898064 -329.625 120 C-329.83737305 120.76256104 -330.04974609 121.52512207 -330.26855469 122.31079102 C-336.14855763 143.95056929 -337.09004982 167.98755704 -330.5859375 189.625 C-329.6925496 193.24619894 -329.345839 195.80864719 -331.1796875 199.1484375 C-332.01886719 200.25058594 -332.01886719 200.25058594 -332.875 201.375 C-333.51308594 202.24769531 -334.15117187 203.12039062 -334.80859375 204.01953125 C-335.53175781 205.00308594 -336.25492188 205.98664063 -337 207 C-355.23044179 232.40233518 -362.43516357 257.70971661 -362.3125 288.875 C-362.30976578 290.30730957 -362.30976578 290.30730957 -362.30697632 291.76855469 C-362.26114244 306.01020155 -361.920565 320.00945878 -359 334 C-358.83371094 334.80614746 -358.66742188 335.61229492 -358.49609375 336.44287109 C-350.68203282 372.65525531 -331.4103258 402.69459043 -300.5390625 423.34765625 C-273.57262554 440.73902717 -240.26920849 446.74013681 -209 451 C-210.37854966 454.03280924 -212.01869073 456.29628421 -214.1875 458.8125 C-221.28894253 467.84801524 -225.30464971 478.70706557 -228.22705078 489.72094727 C-229.38129149 493.85671293 -230.55666034 496.38549962 -234 499 C-244.36000439 503.64833042 -255.76038124 505.30064594 -267 506 C-267.71542969 506.05414062 -268.43085938 506.10828125 -269.16796875 506.1640625 C-286.32550885 506.87225365 -302.23825954 500.05066911 -315 489 C-320.97549492 483.34970209 -325.5934442 476.8124616 -330.3125 470.125 C-341.87825658 453.82802682 -355.39838235 441.22438824 -375.44140625 436.4140625 C-382.27864352 435.3075783 -389.59309676 435.15248745 -396 438 C-395.51421457 441.12290635 -395.0013988 443.99580359 -394 447 C-392.68638654 447.70472825 -391.34937162 448.36642408 -390 449 C-388.67667848 450.08758813 -387.38577834 451.215489 -386.125 452.375 C-383.81505275 454.44672064 -381.66158153 456.22321218 -379.0625 457.9375 C-361.53635274 469.74082367 -353.38866809 489.18916231 -343.78369141 507.29248047 C-333.26696483 526.9857068 -317.93689927 540.09672397 -296.6875 547.3125 C-278.84761194 552.33873207 -259.6195426 552.15358978 -241.41796875 549.4375 C-238.22676608 549.02902606 -235.21105157 548.96848876 -232 549 C-231.85422578 554.47273633 -231.71201601 559.94555112 -231.57275391 565.41845703 C-231.52517072 567.2703689 -231.47670434 569.12225835 -231.42724609 570.97412109 C-231.28261695 576.4021413 -231.15973422 581.83002661 -231.05859375 587.2590332 C-230.99931276 590.03214846 -230.91381192 592.80376173 -230.828125 595.57617188 C-230.79049238 597.3580485 -230.75398968 599.13994944 -230.71875 600.921875 C-230.68712769 601.73295715 -230.65550537 602.54403931 -230.6229248 603.37969971 C-230.52755295 610.50734314 -232.88797496 614.3877585 -237.375 619.9375 C-242.42747358 623.73948637 -249.08063953 622.71151909 -255 622 C-260.54523333 620.83611037 -265.7289186 619.03441579 -271 617 C-271.93360352 616.6400293 -272.86720703 616.28005859 -273.82910156 615.90917969 C-304.08659744 604.03647504 -332.46189199 588.11189471 -358 568 C-358.67160156 567.4726123 -359.34320313 566.94522461 -360.03515625 566.40185547 C-377.97901693 552.24169786 -395.80467384 536.63909757 -409.94921875 518.60546875 C-412.11746217 515.85076711 -414.39674569 513.21592624 -416.6875 510.5625 C-428.33369977 496.55094802 -437.9865122 481.2947031 -446.71728516 465.33496094 C-447.8369742 463.29676033 -448.97996094 461.27509201 -450.13671875 459.2578125 C-473.08678168 418.19907923 -487.35220823 368.09520638 -488 321 C-488.00988953 320.36688904 -488.01977905 319.73377808 -488.02996826 319.08148193 C-488.85560676 265.08472416 -481.49511103 213.16804255 -458 164 C-457.67531738 163.3188916 -457.35063477 162.6377832 -457.01611328 161.93603516 C-454.76235156 157.245653 -452.41781496 152.60783961 -450 148 C-449.6695166 147.3694873 -449.3390332 146.73897461 -448.99853516 146.08935547 C-440.20947575 129.50951068 -429.62426819 113.7226081 -418 99 C-417.28714844 98.09507812 -416.57429688 97.19015625 -415.83984375 96.2578125 C-410.6376305 89.78027713 -405.1039333 83.64563321 -399.44677734 77.56884766 C-397.92403566 75.91762625 -396.42312019 74.24849442 -394.92578125 72.57421875 C-394.42546387 72.01790771 -393.92514648 71.46159668 -393.40966797 70.88842773 C-392.44496631 69.81477718 -391.48419529 68.73757883 -390.52783203 67.65649414 C-389.3924853 66.39975946 -388.20075207 65.19439889 -387 64 C-386.34 64 -385.68 64 -385 64 C-385 63.34 -385 62.68 -385 62 C-383.3203125 60.2734375 -383.3203125 60.2734375 -381.125 58.375 C-380.40570313 57.74335937 -379.68640625 57.11171875 -378.9453125 56.4609375 C-377 55 -377 55 -375 55 C-375 54.34 -375 53.68 -375 53 C-371.53012796 49.77350576 -367.725098 46.9259033 -364 44 C-362.989375 43.19820313 -361.97875 42.39640625 -360.9375 41.5703125 C-284.34327272 -18.36467035 -185.88479081 -43.38901255 0 0 Z " fill="#FFFFFF" transform="translate(488,46)"/>
</svg>
