<?xml version="1.0" encoding="UTF-8"?>
<svg version="1.1" xmlns="http://www.w3.org/2000/svg" width="683" height="683">
<path d="M0 0 C1.94190698 0.03242556 3.88391435 0.05872241 5.82592773 0.08398438 C37.69214578 0.57581025 69.19252571 7.68776112 99.22241211 18.03710938 C100.01631348 18.30604004 100.81021484 18.5749707 101.62817383 18.85205078 C129.03932706 28.20261108 155.56456723 41.30676676 179.22241211 58.03710938 C179.92817383 58.52791992 180.63393555 59.01873047 181.36108398 59.52441406 C192.2317362 67.09050114 202.39407311 75.16525791 212.22241211 84.03710938 C213.22208644 84.92549681 214.22207073 85.81353562 215.22241211 86.70117188 C221.33654261 92.20056643 227.20770994 97.92380877 233.03491211 103.72460938 C233.7405127 104.42553711 234.44611328 105.12646484 235.1730957 105.84863281 C239.72652679 110.41603478 244.01944397 115.14736056 248.22241211 120.03710938 C249.07963867 121.00132813 249.93686523 121.96554688 250.82006836 122.95898438 C262.87130424 136.7863929 273.23522104 152.0598808 282.22241211 168.03710938 C282.6888916 168.8646875 283.15537109 169.69226563 283.63598633 170.54492188 C300.61743543 200.8311427 313.76544002 232.44656054 321.47241211 266.41210938 C321.69429199 267.37648926 321.91617188 268.34086914 322.14477539 269.33447266 C322.91204547 272.88973826 323.57782675 276.45816103 324.22241211 280.03710938 C324.38823792 280.92368225 324.55406372 281.81025513 324.72491455 282.72369385 C328.17360286 301.57268579 328.79098225 319.88044511 328.61364746 338.95880127 C328.59184682 341.91737745 328.59280769 344.87577474 328.59365082 347.83441734 C328.59173892 376.98937274 328.59173892 376.98937274 326.22241211 391.03710938 C326.04564941 392.10880371 325.86888672 393.18049805 325.68676758 394.28466797 C325.16226461 397.25559251 324.58347361 400.20786111 323.97241211 403.16210938 C323.75625244 404.217771 323.54009277 405.27343262 323.31738281 406.36108398 C317.69463438 433.24002649 309.54803465 459.0163373 298.22241211 484.03710938 C297.73587158 485.13563232 297.73587158 485.13563232 297.23950195 486.25634766 C284.1041047 515.90792539 265.88690373 543.71327612 243.69897461 567.37695312 C241.68863976 569.53631911 239.75418458 571.72499358 237.84741211 573.97460938 C234.51784514 577.80890288 230.97770528 581.42606728 227.40991211 585.03710938 C226.5458374 585.92064087 226.5458374 585.92064087 225.66430664 586.82202148 C224.222583 588.26694706 222.72645802 589.65717355 221.22241211 591.03710938 C220.56241211 591.03710938 219.90241211 591.03710938 219.22241211 591.03710938 C219.22241211 591.69710937 219.22241211 592.35710938 219.22241211 593.03710938 C217.92944336 594.37695312 217.92944336 594.37695312 216.03491211 595.97460938 C215.2962793 596.59980469 214.55764648 597.225 213.79663086 597.86914062 C212.52239258 598.94228516 212.52239258 598.94228516 211.22241211 600.03710938 C210.30073242 600.84535156 209.37905273 601.65359375 208.42944336 602.48632812 C165.51891598 639.94159606 112.10189198 664.23438638 56.84741211 676.72460938 C56.02394287 676.91514893 55.20047363 677.10568848 54.35205078 677.30200195 C51.31865443 677.95693655 48.2807991 678.50952094 45.22241211 679.03710938 C44.13041504 679.22773453 44.13041504 679.22773453 43.01635742 679.42221069 C26.20003412 682.25348319 9.48881967 682.53745527 -7.50952148 682.4831543 C-10.51468813 682.47398057 -13.51907636 682.48087459 -16.52416992 682.50366211 C-81.97306343 682.99679961 -153.54575617 663.2244856 -206.22680664 622.97851562 C-208.70471155 621.09257575 -211.2414107 619.31094282 -213.79956055 617.53613281 C-221.91724241 611.87345755 -229.38898131 605.61288064 -236.77758789 599.03710938 C-237.71602539 598.21082031 -238.65446289 597.38453125 -239.62133789 596.53320312 C-246.32260741 590.51900197 -252.71208527 584.20328174 -259.09008789 577.84960938 C-259.93845215 577.00591797 -260.78681641 576.16222656 -261.66088867 575.29296875 C-314.16999626 522.64946101 -344.50292919 450.26313741 -352.77758789 377.03710938 C-352.88071289 376.15958008 -352.98383789 375.28205078 -353.09008789 374.37792969 C-361.87521579 287.37378803 -335.61693615 196.23367648 -280.21508789 128.34960938 C-279.49063477 127.48335938 -278.76618164 126.61710937 -278.01977539 125.72460938 C-276.41893649 123.80583383 -274.84345631 121.86578451 -273.28540039 119.91210938 C-272.47844727 118.90148437 -271.67149414 117.89085938 -270.84008789 116.84960938 C-270.10918945 115.92792969 -269.37829102 115.00625 -268.62524414 114.05664062 C-268.01551758 113.39019531 -267.40579102 112.72375 -266.77758789 112.03710938 C-266.11758789 112.03710938 -265.45758789 112.03710938 -264.77758789 112.03710938 C-264.5360498 111.47032471 -264.29451172 110.90354004 -264.0456543 110.31958008 C-262.52575685 107.58382321 -260.70763579 105.72494598 -258.48852539 103.51757812 C-257.6287207 102.65970703 -256.76891602 101.80183594 -255.88305664 100.91796875 C-254.98200195 100.02916016 -254.08094727 99.14035156 -253.15258789 98.22460938 C-252.27473633 97.34740234 -251.39688477 96.47019531 -250.49243164 95.56640625 C-245.41316182 90.52109886 -240.23133615 85.67366706 -234.77758789 81.03710938 C-234.22167969 80.55314697 -233.66577148 80.06918457 -233.09301758 79.57055664 C-185.81110959 38.58776472 -125.94328695 13.66659119 -64.77758789 3.03710938 C-63.24690674 2.76592285 -63.24690674 2.76592285 -61.68530273 2.48925781 C-41.29965509 -0.96849999 -20.60080236 -0.34913092 0 0 Z M-187.77758789 159.03710938 C-187.77758789 159.69710937 -187.77758789 160.35710937 -187.77758789 161.03710938 C-188.43758789 161.03710938 -189.09758789 161.03710938 -189.77758789 161.03710938 C-191.30753303 163.1131503 -191.30753303 163.1131503 -192.77758789 165.72460938 C-193.29321289 166.59472656 -193.80883789 167.46484375 -194.34008789 168.36132812 C-198.00824647 175.18928635 -198.11211457 180.76444516 -198.09008789 188.41210938 C-198.10620117 189.52328125 -198.12231445 190.63445312 -198.13891602 191.77929688 C-198.14263003 198.01884889 -197.78333727 202.54108937 -194.77758789 208.03710938 C-194.3921582 208.76800781 -194.00672852 209.49890625 -193.60961914 210.25195312 C-193.27317383 210.82042969 -192.93672852 211.38890625 -192.59008789 211.97460938 C-191.99196289 212.98523438 -191.39383789 213.99585938 -190.77758789 215.03710938 C-190.11758789 215.03710938 -189.45758789 215.03710938 -188.77758789 215.03710938 C-188.42374023 215.91882813 -188.42374023 215.91882813 -188.06274414 216.81835938 C-184.26425732 223.37623329 -174.80322666 227.7201434 -167.77758789 230.03710938 C-153.46969557 233.05249262 -139.40384152 231.37438476 -126.52758789 224.41210938 C-116.5035048 217.87608121 -111.0234514 209.45559351 -107.77758789 198.03710938 C-105.44957753 185.94936329 -107.27015119 174.75865018 -114.05102539 164.35351562 C-122.2287444 153.38205099 -131.34884933 148.58943855 -144.71118164 146.54101562 C-159.91764224 144.51086183 -177.10368479 146.77821835 -187.77758789 159.03710938 Z M28.34741211 287.09960938 C25.17953064 290.77918131 22.21466092 294.57515023 19.41381836 298.54101562 C18.22241211 300.03710938 18.22241211 300.03710938 16.22241211 301.03710938 C16.22241211 289.48710937 16.22241211 277.93710937 16.22241211 266.03710938 C-10.83758789 266.03710938 -37.89758789 266.03710938 -65.77758789 266.03710938 C-65.77758789 348.53710938 -65.77758789 431.03710938 -65.77758789 516.03710938 C-38.71758789 516.03710938 -11.65758789 516.03710938 16.22241211 516.03710938 C16.28557617 505.01046875 16.34874023 493.98382813 16.41381836 482.62304688 C16.46928356 475.62298714 16.52649385 468.62301315 16.59155273 461.62304688 C16.69441535 450.52087302 16.79030255 439.41896325 16.83984375 428.31640625 C16.87596489 420.22875332 16.93652154 412.14170421 17.02572674 404.05445635 C17.0720729 399.77706732 17.10665173 395.50035145 17.11190987 391.22269821 C17.11726025 387.18538927 17.15560226 383.14966029 17.21785545 379.11284065 C17.23498182 377.6417095 17.24067363 376.17038686 17.23322296 374.69917488 C17.1712071 359.80269981 22.65839634 347.71937905 33.22241211 337.03710938 C42.83188969 328.99439444 54.7404124 324.98739992 67.22241211 326.03710938 C74.26292246 327.22930246 80.29255741 329.20870705 86.38256836 332.95117188 C88.33849699 334.19240681 88.33849699 334.19240681 91.22241211 335.03710938 C92.26147461 336.87695313 92.26147461 336.87695313 93.22241211 339.03710938 C94.00423293 340.23111464 94.79635072 341.41842649 95.59741211 342.59960938 C107.08615281 361.13748892 104.55235971 385.12698205 104.62712908 406.1322732 C104.64296214 410.00797354 104.66968571 413.88360003 104.69515991 417.75924683 C104.74159605 425.06847478 104.77850805 432.37771719 104.81183279 439.68701541 C104.85752621 449.5851706 104.91826806 459.48323337 104.97808075 469.38131142 C105.07166914 484.9331973 105.14544208 500.48511178 105.22241211 516.03710938 C132.28241211 516.03710938 159.34241211 516.03710938 187.22241211 516.03710938 C187.25165521 493.58398611 187.25165521 493.58398611 187.27124023 471.13085938 C187.27712146 461.94433007 187.28398544 452.75781024 187.29785156 443.57128906 C187.4496583 404.18705379 187.4496583 404.18705379 186.84350586 364.81054688 C186.81289566 363.58212067 186.78228546 362.35369446 186.75074768 361.08804321 C185.75339319 331.73030699 177.50333703 303.50348314 155.51928711 282.89257812 C133.78871008 263.52030737 108.33930187 259.55037361 80.02514648 260.83447266 C60.48605194 262.24714238 41.4745986 272.83662638 28.34741211 287.09960938 Z M-193.77758789 266.03710938 C-194.62026745 281.07370692 -194.62026745 281.07370692 -194.89784241 296.09159851 C-194.89869683 297.05113318 -194.89955126 298.01066785 -194.90043157 298.99927932 C-194.9020451 302.13259681 -194.89663456 305.26585759 -194.89111328 308.39916992 C-194.89083049 310.67780557 -194.89099094 312.95644131 -194.89155579 315.2350769 C-194.89184016 321.35979765 -194.88600209 327.4844984 -194.87898183 333.60921454 C-194.87268791 340.03267294 -194.87213975 346.4561319 -194.87095642 352.8795929 C-194.86821147 363.64116828 -194.86198516 374.40273502 -194.85302734 385.16430664 C-194.84381899 396.23852503 -194.83675499 407.31274144 -194.83251953 418.38696289 C-194.83225681 419.07196712 -194.83199408 419.75697135 -194.8317234 420.46273329 C-194.83041817 423.89991168 -194.8291545 427.33709009 -194.8279115 430.77426851 C-194.81757987 459.19522152 -194.79916392 487.61616254 -194.77758789 516.03710938 C-167.38758789 516.03710938 -139.99758789 516.03710938 -111.77758789 516.03710938 C-111.77758789 433.53710938 -111.77758789 351.03710938 -111.77758789 266.03710938 C-138.83758789 266.03710938 -165.89758789 266.03710938 -193.77758789 266.03710938 Z " fill="#FFFFFF" transform="translate(353.777587890625,-0.037109375)"/>
</svg>
